# xmcd
#
# Track frame offsets: 
#        150
#        18730
#        42420
#        63800
#        86975
#        110227
#        134327
#        149590
#        165600
#        187397
#        209412
#
# Disc length: 3053 seconds
#
# Revision: 11
# Processed by: cddbd v1.5.2PL0 Copyright (c) Steve Scherf et al.
# Submitted via: ExactAudioCopy v1.1
#
DISCID=b20beb0b
DTITLE=プリンセス プリンセス - PRINCESS PRINCESS
DYEAR=1990
DGENRE=Rock
TTITLE0=ROCK ME
TTITLE1=ティンカーベル
TTITLE2=台風の歌
TTITLE3=逃げろ
TTITLE4=ジュリアン
TTITLE5=ROLLIN' ON THE CORNER
TTITLE6=錆びつきブルース
TTITLE7=月夜の出来事
TTITLE8=THE LAST MOMENT
TTITLE9=HIGHWAY STAR
TTITLE10=One
EXTD=1990.12.21
EXTT0=
EXTT1=
EXTT2=
EXTT3=
EXTT4=
EXTT5=
EXTT6=
EXTT7=
EXTT8=
EXTT9=
EXTT10=
PLAYORDER=
